<mxfile host="app.diagrams.net" agent="Mozilla/5.0 (Windows NT 10.0; Win64; x64) AppleWebKit/537.36 (KHTML, like Gecko) Chrome/133.0.0.0 Safari/537.36" version="26.0.15">
  <diagram name="Page-1" id="uY-ux5SM715pgpHfwJ75">
    <mxGraphModel dx="808" dy="438" grid="1" gridSize="10" guides="1" tooltips="1" connect="1" arrows="1" fold="1" page="1" pageScale="1" pageWidth="827" pageHeight="1169" math="0" shadow="0">
      <root>
        <mxCell id="0" />
        <mxCell id="1" parent="0" />
        <mxCell id="HiHLQ8zvASw_HJKXryYm-1" value="" style="rounded=0;whiteSpace=wrap;html=1;fillColor=#FFFFFF;strokeColor=#000000;" vertex="1" parent="1">
          <mxGeometry x="80" y="320" width="410" height="440" as="geometry" />
        </mxCell>
        <mxCell id="HiHLQ8zvASw_HJKXryYm-2" value="" style="whiteSpace=wrap;html=1;aspect=fixed;fillColor=#f5f5f5;strokeColor=#666666;fontColor=#333333;" vertex="1" parent="1">
          <mxGeometry x="230" y="170" width="110" height="110" as="geometry" />
        </mxCell>
        <mxCell id="HiHLQ8zvASw_HJKXryYm-4" style="edgeStyle=orthogonalEdgeStyle;rounded=0;orthogonalLoop=1;jettySize=auto;html=1;exitX=0.5;exitY=0;exitDx=0;exitDy=0;" edge="1" parent="1">
          <mxGeometry relative="1" as="geometry">
            <mxPoint x="295" y="270" as="targetPoint" />
            <mxPoint x="295" y="270" as="sourcePoint" />
          </mxGeometry>
        </mxCell>
        <mxCell id="HiHLQ8zvASw_HJKXryYm-5" value="" style="endArrow=none;dashed=1;html=1;dashPattern=1 3;strokeWidth=2;rounded=0;exitX=0.5;exitY=0;exitDx=0;exitDy=0;entryX=0.5;entryY=1;entryDx=0;entryDy=0;" edge="1" parent="1">
          <mxGeometry width="50" height="50" relative="1" as="geometry">
            <mxPoint x="195.25" y="230" as="sourcePoint" />
            <mxPoint y="310" as="targetPoint" />
          </mxGeometry>
        </mxCell>
        <mxCell id="HiHLQ8zvASw_HJKXryYm-8" value="&lt;font style=&quot;font-size: 12px;&quot;&gt;Mobile App&lt;/font&gt;" style="text;html=1;align=center;verticalAlign=middle;whiteSpace=wrap;rounded=0;fontSize=9;" vertex="1" parent="1">
          <mxGeometry x="243.49" y="180" width="85" height="30" as="geometry" />
        </mxCell>
        <mxCell id="HiHLQ8zvASw_HJKXryYm-9" value="&lt;font style=&quot;font-size: 8px;&quot;&gt;[Container: Android-Studio]&lt;/font&gt;" style="text;html=1;align=center;verticalAlign=middle;whiteSpace=wrap;rounded=0;" vertex="1" parent="1">
          <mxGeometry x="230" y="200" width="115.25" height="10" as="geometry" />
        </mxCell>
        <mxCell id="HiHLQ8zvASw_HJKXryYm-10" value="&lt;br style=&quot;font-size: x-small;&quot;&gt;&lt;br style=&quot;font-size: x-small;&quot;&gt;&lt;span style=&quot;font-size: x-small;&quot;&gt;Stellt Verbindung zur KI her&lt;/span&gt;&lt;br style=&quot;font-size: x-small;&quot;&gt;&lt;span style=&quot;font-size: x-small;&quot;&gt;und gibt die Möglichkeit zur&amp;nbsp;&lt;/span&gt;&lt;br style=&quot;font-size: x-small;&quot;&gt;&lt;span style=&quot;font-size: x-small;&quot;&gt;Früherkennung&lt;/span&gt;" style="rounded=0;whiteSpace=wrap;html=1;fillColor=#ffe6cc;strokeColor=#d79b00;" vertex="1" parent="1">
          <mxGeometry x="100" y="360" width="140" height="80" as="geometry" />
        </mxCell>
        <mxCell id="HiHLQ8zvASw_HJKXryYm-11" value="&lt;font size=&quot;1&quot;&gt;Desktop Anwendung&lt;/font&gt;" style="text;html=1;align=center;verticalAlign=middle;whiteSpace=wrap;rounded=0;fontSize=9;" vertex="1" parent="1">
          <mxGeometry x="100" y="360" width="140" height="30" as="geometry" />
        </mxCell>
        <mxCell id="HiHLQ8zvASw_HJKXryYm-12" value="&lt;font style=&quot;font-size: 8px;&quot;&gt;[Container: C# WPF}&lt;/font&gt;" style="text;html=1;align=center;verticalAlign=middle;whiteSpace=wrap;rounded=0;" vertex="1" parent="1">
          <mxGeometry x="116.19" y="380" width="107.62" height="10" as="geometry" />
        </mxCell>
        <mxCell id="HiHLQ8zvASw_HJKXryYm-13" value="" style="endArrow=none;dashed=1;html=1;dashPattern=1 3;strokeWidth=2;rounded=0;entryX=0.5;entryY=1;entryDx=0;entryDy=0;exitX=0.5;exitY=0;exitDx=0;exitDy=0;" edge="1" parent="1" source="HiHLQ8zvASw_HJKXryYm-11" target="HiHLQ8zvASw_HJKXryYm-2">
          <mxGeometry width="50" height="50" relative="1" as="geometry">
            <mxPoint x="320" y="410" as="sourcePoint" />
            <mxPoint x="370" y="360" as="targetPoint" />
          </mxGeometry>
        </mxCell>
        <mxCell id="HiHLQ8zvASw_HJKXryYm-15" value="&lt;div&gt;&lt;br&gt;&lt;/div&gt;&lt;div&gt;&lt;br&gt;&lt;/div&gt;Stellt KI-Funktionalitäten via JSON/HTTPS API zur Verfügung." style="rounded=0;whiteSpace=wrap;html=1;fontSize=10;align=center;fillColor=#d5e8d4;strokeColor=#82b366;" vertex="1" parent="1">
          <mxGeometry x="322.24" y="520" width="132.24" height="80" as="geometry" />
        </mxCell>
        <mxCell id="HiHLQ8zvASw_HJKXryYm-16" value="&lt;font style=&quot;font-size: 12px;&quot;&gt;KI-Backend&lt;/font&gt;" style="text;html=1;align=center;verticalAlign=middle;whiteSpace=wrap;rounded=0;fontSize=9;" vertex="1" parent="1">
          <mxGeometry x="352.24" y="520" width="72.25" height="20" as="geometry" />
        </mxCell>
        <mxCell id="HiHLQ8zvASw_HJKXryYm-17" value="&lt;font style=&quot;font-size: 8px;&quot;&gt;[Container: Python]&lt;/font&gt;" style="text;html=1;align=center;verticalAlign=middle;whiteSpace=wrap;rounded=0;" vertex="1" parent="1">
          <mxGeometry x="348.43" y="530" width="79.87" height="20" as="geometry" />
        </mxCell>
        <mxCell id="HiHLQ8zvASw_HJKXryYm-18" value="&lt;br&gt;&lt;br&gt;Stellt Datenbankfuntkionen mittels JSON/HTTP API zur Verfügung.&lt;div&gt;&lt;/div&gt;" style="rounded=0;whiteSpace=wrap;html=1;fontSize=10;align=center;fillColor=#d5e8d4;strokeColor=#82b366;" vertex="1" parent="1">
          <mxGeometry x="322.24" y="650" width="140" height="80" as="geometry" />
        </mxCell>
        <mxCell id="HiHLQ8zvASw_HJKXryYm-19" value="&lt;span style=&quot;font-size: 12px;&quot;&gt;Database-API&lt;/span&gt;" style="text;html=1;align=center;verticalAlign=middle;whiteSpace=wrap;rounded=0;fontSize=9;" vertex="1" parent="1">
          <mxGeometry x="347.44" y="650" width="82.11" height="20" as="geometry" />
        </mxCell>
        <mxCell id="HiHLQ8zvASw_HJKXryYm-20" value="&lt;font style=&quot;font-size: 8px;&quot;&gt;[Container: Typescript]&lt;/font&gt;" style="text;html=1;align=center;verticalAlign=middle;whiteSpace=wrap;rounded=0;" vertex="1" parent="1">
          <mxGeometry x="344.81" y="660" width="83.49" height="20" as="geometry" />
        </mxCell>
        <mxCell id="HiHLQ8zvASw_HJKXryYm-21" value="&lt;br&gt;Algorithmus für das Zuschneiden von Bildern.&lt;div&gt;&lt;/div&gt;" style="rounded=0;whiteSpace=wrap;html=1;fontSize=10;align=center;fillColor=#d5e8d4;strokeColor=#82b366;" vertex="1" parent="1">
          <mxGeometry x="109.99999999999999" y="650" width="132.24" height="80" as="geometry" />
        </mxCell>
        <mxCell id="HiHLQ8zvASw_HJKXryYm-22" value="&lt;font style=&quot;font-size: 12px;&quot;&gt;Bilder zuschneiden&lt;/font&gt;" style="text;html=1;align=center;verticalAlign=middle;whiteSpace=wrap;rounded=0;fontSize=9;" vertex="1" parent="1">
          <mxGeometry x="119.99999999999999" y="650" width="112.24" height="20" as="geometry" />
        </mxCell>
        <mxCell id="HiHLQ8zvASw_HJKXryYm-23" value="&lt;font style=&quot;font-size: 8px;&quot;&gt;[Container: Python]&lt;/font&gt;" style="text;html=1;align=center;verticalAlign=middle;whiteSpace=wrap;rounded=0;" vertex="1" parent="1">
          <mxGeometry x="136.19" y="660" width="79.87" height="20" as="geometry" />
        </mxCell>
        <mxCell id="HiHLQ8zvASw_HJKXryYm-24" value="" style="endArrow=none;dashed=1;html=1;dashPattern=1 3;strokeWidth=2;rounded=0;entryX=0.5;entryY=1;entryDx=0;entryDy=0;exitX=0.5;exitY=0;exitDx=0;exitDy=0;" edge="1" parent="1" source="HiHLQ8zvASw_HJKXryYm-16" target="HiHLQ8zvASw_HJKXryYm-10">
          <mxGeometry width="50" height="50" relative="1" as="geometry">
            <mxPoint x="280" y="540" as="sourcePoint" />
            <mxPoint x="330" y="490" as="targetPoint" />
          </mxGeometry>
        </mxCell>
        <mxCell id="HiHLQ8zvASw_HJKXryYm-25" value="Macht API Aufrug&lt;br&gt;[JSON]" style="edgeLabel;html=1;align=center;verticalAlign=middle;resizable=0;points=[];" vertex="1" connectable="0" parent="HiHLQ8zvASw_HJKXryYm-24">
          <mxGeometry x="0.3038" y="-2" relative="1" as="geometry">
            <mxPoint x="-1" y="8" as="offset" />
          </mxGeometry>
        </mxCell>
        <mxCell id="HiHLQ8zvASw_HJKXryYm-28" value="" style="endArrow=none;dashed=1;html=1;dashPattern=1 3;strokeWidth=2;rounded=0;entryX=0.5;entryY=1;entryDx=0;entryDy=0;exitX=0.5;exitY=0;exitDx=0;exitDy=0;" edge="1" parent="1" source="HiHLQ8zvASw_HJKXryYm-19" target="HiHLQ8zvASw_HJKXryYm-15">
          <mxGeometry width="50" height="50" relative="1" as="geometry">
            <mxPoint x="292.24" y="590" as="sourcePoint" />
            <mxPoint x="342.24" y="540" as="targetPoint" />
          </mxGeometry>
        </mxCell>
        <mxCell id="HiHLQ8zvASw_HJKXryYm-29" value="Macht API aufruge&amp;nbsp;&lt;br&gt;[JSON]" style="edgeLabel;html=1;align=center;verticalAlign=middle;resizable=0;points=[];" vertex="1" connectable="0" parent="HiHLQ8zvASw_HJKXryYm-28">
          <mxGeometry x="-0.133" relative="1" as="geometry">
            <mxPoint as="offset" />
          </mxGeometry>
        </mxCell>
        <mxCell id="HiHLQ8zvASw_HJKXryYm-30" value="DermaAI-System" style="text;html=1;align=center;verticalAlign=middle;whiteSpace=wrap;rounded=0;" vertex="1" parent="1">
          <mxGeometry x="380" y="750" width="110" as="geometry" />
        </mxCell>
        <mxCell id="HiHLQ8zvASw_HJKXryYm-31" value="" style="endArrow=none;dashed=1;html=1;dashPattern=1 3;strokeWidth=2;rounded=0;exitX=0.5;exitY=0;exitDx=0;exitDy=0;entryX=0.5;entryY=1;entryDx=0;entryDy=0;" edge="1" parent="1" source="HiHLQ8zvASw_HJKXryYm-22" target="HiHLQ8zvASw_HJKXryYm-15">
          <mxGeometry width="50" height="50" relative="1" as="geometry">
            <mxPoint x="170" y="540" as="sourcePoint" />
            <mxPoint x="220" y="490" as="targetPoint" />
          </mxGeometry>
        </mxCell>
        <mxCell id="HiHLQ8zvASw_HJKXryYm-32" value="Macht API aufruge&amp;nbsp;&lt;br&gt;[JSON]" style="edgeLabel;html=1;align=center;verticalAlign=middle;resizable=0;points=[];" vertex="1" connectable="0" parent="HiHLQ8zvASw_HJKXryYm-31">
          <mxGeometry x="-0.3909" relative="1" as="geometry">
            <mxPoint x="-25" y="-5" as="offset" />
          </mxGeometry>
        </mxCell>
      </root>
    </mxGraphModel>
  </diagram>
</mxfile>
